<?xml version="1.0" standalone="no"?>
<!DOCTYPE svg PUBLIC "-//W3C//DTD SVG 20010904//EN"
 "http://www.w3.org/TR/2001/REC-SVG-20010904/DTD/svg10.dtd">
<svg version="1.0" xmlns="http://www.w3.org/2000/svg"
 width="303.000000pt" height="303.000000pt" viewBox="0 0 303.000000 303.000000"
 preserveAspectRatio="xMidYMid meet">
<metadata>
Created by potrace 1.11, written by Peter Selinger 2001-2013
</metadata>
<g transform="translate(0.000000,303.000000) scale(0.100000,-0.100000)"
fill="#000000" stroke="none">
<path d="M1385 3018 c-279 -23 -555 -130 -790 -306 -89 -67 -242 -226 -312
-326 -84 -118 -170 -294 -211 -428 -163 -531 -21 -1110 368 -1498 125 -125
138 -136 245 -205 306 -198 631 -276 995 -241 327 32 648 186 890 426 110 110
123 125 198 234 102 150 208 407 228 554 3 26 8 50 10 53 6 10 17 159 17 234
0 72 -12 235 -18 245 -2 3 -6 23 -9 45 -4 22 -17 78 -31 125 -146 511 -552
908 -1066 1043 -174 46 -330 60 -514 45z"/>
</g>
</svg>
